<mxfile host="Electron" agent="Mozilla/5.0 (Windows NT 10.0; Win64; x64) AppleWebKit/537.36 (KHTML, like Gecko) draw.io/26.0.16 Chrome/132.0.6834.196 Electron/34.2.0 Safari/537.36" version="26.0.16">
  <diagram name="Page-1" id="vAJcoHgTHRDAOkws9vBz">
    <mxGraphModel dx="2868" dy="1672" grid="0" gridSize="10" guides="1" tooltips="1" connect="1" arrows="1" fold="1" page="1" pageScale="1" pageWidth="1169" pageHeight="827" math="0" shadow="0">
      <root>
        <mxCell id="0" />
        <mxCell id="1" parent="0" />
        <mxCell id="cfh1dz4Wo67SSPK-YPB2-69" value="" style="group" vertex="1" connectable="0" parent="1">
          <mxGeometry x="870" y="263" width="245.85" height="301.94" as="geometry" />
        </mxCell>
        <mxCell id="cfh1dz4Wo67SSPK-YPB2-18" value="" style="group;fillColor=#f8cecc;strokeColor=#b85450;container=0;rotation=-90;" vertex="1" connectable="0" parent="cfh1dz4Wo67SSPK-YPB2-69">
          <mxGeometry x="-11.829404649245836" y="69.18705219997446" width="262.732907925118" height="202.72453932328992" as="geometry" />
        </mxCell>
        <mxCell id="cfh1dz4Wo67SSPK-YPB2-45" value="" style="triangle;whiteSpace=wrap;html=1;rotation=-10;strokeColor=#FFFFFF;" vertex="1" parent="cfh1dz4Wo67SSPK-YPB2-69">
          <mxGeometry x="5.412442433340034" y="3.6228415520799273" width="47.62033956142764" height="66.38376328099322" as="geometry" />
        </mxCell>
        <mxCell id="cfh1dz4Wo67SSPK-YPB2-46" value="" style="rounded=0;whiteSpace=wrap;html=1;strokeColor=#FFFFFF;container=0;rotation=-90;" vertex="1" parent="cfh1dz4Wo67SSPK-YPB2-69">
          <mxGeometry x="214.77772843616845" y="44.60047320701401" width="36.12577483970373" height="25.971622942897223" as="geometry" />
        </mxCell>
        <mxCell id="cfh1dz4Wo67SSPK-YPB2-47" value="" style="rounded=0;whiteSpace=wrap;html=1;strokeColor=#FFFFFF;container=0;rotation=-90;" vertex="1" parent="cfh1dz4Wo67SSPK-YPB2-69">
          <mxGeometry x="214.77772843616845" y="80.660789063356" width="36.12577483970373" height="25.971622942897223" as="geometry" />
        </mxCell>
        <mxCell id="cfh1dz4Wo67SSPK-YPB2-48" value="" style="rounded=0;whiteSpace=wrap;html=1;strokeColor=#FFFFFF;container=0;rotation=-90;" vertex="1" parent="cfh1dz4Wo67SSPK-YPB2-69">
          <mxGeometry x="214.77772843616845" y="116.721104919698" width="36.12577483970373" height="25.971622942897223" as="geometry" />
        </mxCell>
        <mxCell id="cfh1dz4Wo67SSPK-YPB2-49" value="" style="rounded=0;whiteSpace=wrap;html=1;strokeColor=#FFFFFF;container=0;rotation=-90;" vertex="1" parent="cfh1dz4Wo67SSPK-YPB2-69">
          <mxGeometry x="214.77772843616845" y="152.78142077604" width="36.12577483970373" height="25.971622942897223" as="geometry" />
        </mxCell>
        <mxCell id="cfh1dz4Wo67SSPK-YPB2-50" value="" style="rounded=0;whiteSpace=wrap;html=1;strokeColor=#FFFFFF;container=0;rotation=-90;" vertex="1" parent="cfh1dz4Wo67SSPK-YPB2-69">
          <mxGeometry x="214.77772843616845" y="188.84173663238198" width="36.12577483970373" height="25.971622942897223" as="geometry" />
        </mxCell>
        <mxCell id="cfh1dz4Wo67SSPK-YPB2-51" value="" style="rounded=0;whiteSpace=wrap;html=1;strokeColor=#FFFFFF;container=0;rotation=-90;" vertex="1" parent="cfh1dz4Wo67SSPK-YPB2-69">
          <mxGeometry x="214.77772843616845" y="224.902052488724" width="36.12577483970373" height="25.971622942897223" as="geometry" />
        </mxCell>
        <mxCell id="cfh1dz4Wo67SSPK-YPB2-52" value="" style="rounded=0;whiteSpace=wrap;html=1;strokeColor=#FFFFFF;container=0;rotation=-90;" vertex="1" parent="cfh1dz4Wo67SSPK-YPB2-69">
          <mxGeometry x="214.77772843616845" y="252.76684201407915" width="36.12577483970373" height="25.971622942897223" as="geometry" />
        </mxCell>
        <mxCell id="cfh1dz4Wo67SSPK-YPB2-53" value="" style="rounded=0;whiteSpace=wrap;html=1;strokeColor=#FFFFFF;container=0;rotation=-90;" vertex="1" parent="cfh1dz4Wo67SSPK-YPB2-69">
          <mxGeometry x="214.77772843616845" y="270.79699994225007" width="36.12577483970373" height="25.971622942897223" as="geometry" />
        </mxCell>
        <mxCell id="cfh1dz4Wo67SSPK-YPB2-54" value="" style="endArrow=none;html=1;rounded=0;exitX=1;exitY=0;exitDx=0;exitDy=0;strokeWidth=2;" edge="1" parent="cfh1dz4Wo67SSPK-YPB2-69" source="cfh1dz4Wo67SSPK-YPB2-46">
          <mxGeometry width="50" height="50" relative="1" as="geometry">
            <mxPoint x="246.79830158954223" y="150.32276287674395" as="sourcePoint" />
            <mxPoint x="219.70397045976443" y="301.94" as="targetPoint" />
          </mxGeometry>
        </mxCell>
        <mxCell id="cfh1dz4Wo67SSPK-YPB2-19" value="" style="rounded=0;whiteSpace=wrap;html=1;container=0;fillColor=#FFD966;strokeColor=#000000;rotation=-90;" vertex="1" parent="cfh1dz4Wo67SSPK-YPB2-69">
          <mxGeometry x="40.30665676714477" y="51.9946213310281" width="24.360266806682038" height="7.179281065944451" as="geometry" />
        </mxCell>
        <mxCell id="cfh1dz4Wo67SSPK-YPB2-20" value="" style="rounded=0;whiteSpace=wrap;html=1;container=0;fillColor=#FFD966;strokeColor=#000000;rotation=-90;" vertex="1" parent="cfh1dz4Wo67SSPK-YPB2-69">
          <mxGeometry x="59.190584524262626" y="51.9946213310281" width="24.360266806682038" height="7.179281065944451" as="geometry" />
        </mxCell>
        <mxCell id="cfh1dz4Wo67SSPK-YPB2-21" value="" style="rounded=0;whiteSpace=wrap;html=1;container=0;fillColor=#FFD966;strokeColor=#000000;rotation=-90;" vertex="1" parent="cfh1dz4Wo67SSPK-YPB2-69">
          <mxGeometry x="78.89555261864648" y="51.9946213310281" width="24.360266806682038" height="7.179281065944451" as="geometry" />
        </mxCell>
        <mxCell id="cfh1dz4Wo67SSPK-YPB2-22" value="" style="rounded=0;whiteSpace=wrap;html=1;container=0;fillColor=#FFD966;strokeColor=#000000;rotation=-90;" vertex="1" parent="cfh1dz4Wo67SSPK-YPB2-69">
          <mxGeometry x="98.60052071303033" y="51.9946213310281" width="24.360266806682038" height="7.179281065944451" as="geometry" />
        </mxCell>
        <mxCell id="cfh1dz4Wo67SSPK-YPB2-23" value="" style="rounded=0;whiteSpace=wrap;html=1;container=0;fillColor=#FFD966;strokeColor=#000000;rotation=-90;" vertex="1" parent="cfh1dz4Wo67SSPK-YPB2-69">
          <mxGeometry x="117.4844484701482" y="51.9946213310281" width="24.360266806682038" height="7.179281065944451" as="geometry" />
        </mxCell>
        <mxCell id="cfh1dz4Wo67SSPK-YPB2-24" value="" style="rounded=0;whiteSpace=wrap;html=1;container=0;fillColor=#FFD966;strokeColor=#000000;rotation=-90;" vertex="1" parent="cfh1dz4Wo67SSPK-YPB2-69">
          <mxGeometry x="134.72629555273406" y="51.9946213310281" width="24.360266806682038" height="7.179281065944451" as="geometry" />
        </mxCell>
        <mxCell id="cfh1dz4Wo67SSPK-YPB2-25" value="" style="rounded=0;whiteSpace=wrap;html=1;container=0;fillColor=#FFD966;strokeColor=#000000;rotation=-90;" vertex="1" parent="cfh1dz4Wo67SSPK-YPB2-69">
          <mxGeometry x="151.1471022980539" y="51.9946213310281" width="24.360266806682038" height="7.179281065944451" as="geometry" />
        </mxCell>
        <mxCell id="cfh1dz4Wo67SSPK-YPB2-26" value="" style="rounded=0;whiteSpace=wrap;html=1;container=0;fillColor=#FFD966;strokeColor=#000000;rotation=-90;" vertex="1" parent="cfh1dz4Wo67SSPK-YPB2-69">
          <mxGeometry x="167.56790904337382" y="51.9946213310281" width="24.360266806682038" height="7.179281065944451" as="geometry" />
        </mxCell>
        <mxCell id="cfh1dz4Wo67SSPK-YPB2-27" value="" style="endArrow=none;html=1;rounded=0;entryX=0;entryY=1;entryDx=0;entryDy=0;strokeWidth=2;" edge="1" parent="cfh1dz4Wo67SSPK-YPB2-69">
          <mxGeometry width="50" height="50" relative="1" as="geometry">
            <mxPoint x="220.5250107970304" y="301.94" as="sourcePoint" />
            <mxPoint x="17.728047492329942" y="301.94" as="targetPoint" />
          </mxGeometry>
        </mxCell>
        <mxCell id="cfh1dz4Wo67SSPK-YPB2-28" value="" style="endArrow=none;html=1;rounded=0;exitX=1;exitY=1;exitDx=0;exitDy=0;" edge="1" parent="cfh1dz4Wo67SSPK-YPB2-69">
          <mxGeometry width="50" height="50" relative="1" as="geometry">
            <mxPoint x="221.3460511342964" y="301.94" as="sourcePoint" />
            <mxPoint x="218.8829301224984" y="39.29155551799853" as="targetPoint" />
          </mxGeometry>
        </mxCell>
        <mxCell id="cfh1dz4Wo67SSPK-YPB2-29" value="" style="endArrow=none;html=1;rounded=0;strokeWidth=2;" edge="1" parent="cfh1dz4Wo67SSPK-YPB2-69">
          <mxGeometry width="50" height="50" relative="1" as="geometry">
            <mxPoint x="17.728047492329942" y="301.94" as="sourcePoint" />
            <mxPoint x="17.728047492329942" y="68.36749956687578" as="targetPoint" />
          </mxGeometry>
        </mxCell>
        <mxCell id="cfh1dz4Wo67SSPK-YPB2-30" value="" style="endArrow=none;html=1;rounded=0;strokeWidth=2;" edge="1" parent="cfh1dz4Wo67SSPK-YPB2-69">
          <mxGeometry width="50" height="50" relative="1" as="geometry">
            <mxPoint x="46.464459296639724" y="39.68315740842192" as="sourcePoint" />
            <mxPoint x="17.728047492329942" y="68.36749956687578" as="targetPoint" />
          </mxGeometry>
        </mxCell>
        <mxCell id="cfh1dz4Wo67SSPK-YPB2-31" value="" style="endArrow=none;html=1;rounded=0;strokeWidth=2;" edge="1" parent="cfh1dz4Wo67SSPK-YPB2-69">
          <mxGeometry width="50" height="50" relative="1" as="geometry">
            <mxPoint x="218.8829301224984" y="39.68315740842192" as="sourcePoint" />
            <mxPoint x="46.464459296639724" y="39.68315740842192" as="targetPoint" />
          </mxGeometry>
        </mxCell>
        <mxCell id="cfh1dz4Wo67SSPK-YPB2-32" value="&lt;font style=&quot;font-size: 30px;&quot;&gt;&lt;b style=&quot;&quot;&gt;SDHC&lt;/b&gt;&lt;/font&gt;" style="text;html=1;align=center;verticalAlign=middle;whiteSpace=wrap;rounded=0;container=0;rotation=-90;" vertex="1" parent="cfh1dz4Wo67SSPK-YPB2-69">
          <mxGeometry x="1.0855598559482618" y="141.10457912784779" width="223.74170230835597" height="93.85516754246102" as="geometry" />
        </mxCell>
        <mxCell id="cfh1dz4Wo67SSPK-YPB2-41" value="" style="rounded=0;whiteSpace=wrap;html=1;container=0;fillColor=#FFD966;strokeColor=#000000;rotation=-90;" vertex="1" parent="cfh1dz4Wo67SSPK-YPB2-69">
          <mxGeometry x="183.1676754514277" y="51.9946213310281" width="24.360266806682038" height="7.179281065944451" as="geometry" />
        </mxCell>
        <mxCell id="cfh1dz4Wo67SSPK-YPB2-44" value="" style="rounded=0;whiteSpace=wrap;html=1;container=0;fillColor=#FFD966;strokeColor=#000000;rotation=-90;" vertex="1" parent="cfh1dz4Wo67SSPK-YPB2-69">
          <mxGeometry x="198.05313676606016" y="51.28161054023224" width="24.360266806682038" height="8.613498173867145" as="geometry" />
        </mxCell>
        <mxCell id="cfh1dz4Wo67SSPK-YPB2-60" value="" style="rounded=0;whiteSpace=wrap;html=1;container=0;fillColor=#FFD966;strokeColor=#000000;rotation=-90;" vertex="1" parent="cfh1dz4Wo67SSPK-YPB2-69">
          <mxGeometry x="183.1676754514277" y="51.28161054023224" width="24.360266806682038" height="8.613498173867145" as="geometry" />
        </mxCell>
        <mxCell id="cfh1dz4Wo67SSPK-YPB2-61" value="" style="rounded=0;whiteSpace=wrap;html=1;container=0;fillColor=#FFD966;strokeColor=#000000;rotation=-90;" vertex="1" parent="cfh1dz4Wo67SSPK-YPB2-69">
          <mxGeometry x="167.56790904337382" y="51.28161054023224" width="24.360266806682038" height="8.613498173867145" as="geometry" />
        </mxCell>
        <mxCell id="cfh1dz4Wo67SSPK-YPB2-62" value="" style="rounded=0;whiteSpace=wrap;html=1;container=0;fillColor=#FFD966;strokeColor=#000000;rotation=-90;" vertex="1" parent="cfh1dz4Wo67SSPK-YPB2-69">
          <mxGeometry x="151.1471022980539" y="51.273415013901264" width="24.360266806682038" height="8.613498173867145" as="geometry" />
        </mxCell>
        <mxCell id="cfh1dz4Wo67SSPK-YPB2-63" value="" style="rounded=0;whiteSpace=wrap;html=1;container=0;fillColor=#FFD966;strokeColor=#000000;rotation=-90;" vertex="1" parent="cfh1dz4Wo67SSPK-YPB2-69">
          <mxGeometry x="134.72629555273406" y="51.28161054023224" width="24.360266806682038" height="8.613498173867145" as="geometry" />
        </mxCell>
        <mxCell id="cfh1dz4Wo67SSPK-YPB2-64" value="" style="rounded=0;whiteSpace=wrap;html=1;container=0;fillColor=#FFD966;strokeColor=#000000;rotation=-90;" vertex="1" parent="cfh1dz4Wo67SSPK-YPB2-69">
          <mxGeometry x="117.4844484701482" y="51.273415013901264" width="24.360266806682038" height="8.613498173867145" as="geometry" />
        </mxCell>
        <mxCell id="cfh1dz4Wo67SSPK-YPB2-65" value="" style="rounded=0;whiteSpace=wrap;html=1;container=0;fillColor=#FFD966;strokeColor=#000000;rotation=-90;" vertex="1" parent="cfh1dz4Wo67SSPK-YPB2-69">
          <mxGeometry x="98.60052071303033" y="51.28161054023224" width="24.360266806682038" height="8.613498173867145" as="geometry" />
        </mxCell>
        <mxCell id="cfh1dz4Wo67SSPK-YPB2-66" value="" style="rounded=0;whiteSpace=wrap;html=1;container=0;fillColor=#FFD966;strokeColor=#000000;rotation=-90;" vertex="1" parent="cfh1dz4Wo67SSPK-YPB2-69">
          <mxGeometry x="78.89555261864648" y="51.28161054023224" width="24.360266806682038" height="8.613498173867145" as="geometry" />
        </mxCell>
        <mxCell id="cfh1dz4Wo67SSPK-YPB2-67" value="" style="rounded=0;whiteSpace=wrap;html=1;container=0;fillColor=#FFD966;strokeColor=#000000;rotation=-90;" vertex="1" parent="cfh1dz4Wo67SSPK-YPB2-69">
          <mxGeometry x="59.190584524262626" y="51.28161054023224" width="24.360266806682038" height="8.613498173867145" as="geometry" />
        </mxCell>
        <mxCell id="cfh1dz4Wo67SSPK-YPB2-68" value="" style="rounded=0;whiteSpace=wrap;html=1;container=0;fillColor=#FFD966;strokeColor=#000000;rotation=-90;" vertex="1" parent="cfh1dz4Wo67SSPK-YPB2-69">
          <mxGeometry x="40.30665676714477" y="51.273415013901264" width="24.360266806682038" height="8.613498173867145" as="geometry" />
        </mxCell>
        <mxCell id="cfh1dz4Wo67SSPK-YPB2-71" value="" style="group;fillColor=default;" vertex="1" connectable="0" parent="1">
          <mxGeometry x="402" y="282.0047619047619" width="293.34000000000003" height="292.66666666666674" as="geometry" />
        </mxCell>
        <mxCell id="cfh1dz4Wo67SSPK-YPB2-72" value="" style="rounded=0;whiteSpace=wrap;html=1;fillColor=#FFD966;container=0;strokeColor=#666666;" vertex="1" parent="cfh1dz4Wo67SSPK-YPB2-71">
          <mxGeometry y="35.73571428571432" width="26.666666666666664" height="8.095238095238095" as="geometry" />
        </mxCell>
        <mxCell id="cfh1dz4Wo67SSPK-YPB2-73" value="" style="rounded=0;whiteSpace=wrap;html=1;fillColor=#FFD966;container=0;strokeColor=#666666;" vertex="1" parent="cfh1dz4Wo67SSPK-YPB2-71">
          <mxGeometry y="56.73571428571432" width="26.666666666666664" height="8.095238095238095" as="geometry" />
        </mxCell>
        <mxCell id="cfh1dz4Wo67SSPK-YPB2-74" value="" style="rounded=0;whiteSpace=wrap;html=1;fillColor=#FFD966;container=0;strokeColor=#666666;" vertex="1" parent="cfh1dz4Wo67SSPK-YPB2-71">
          <mxGeometry y="76.73571428571432" width="26.666666666666664" height="8.095238095238095" as="geometry" />
        </mxCell>
        <mxCell id="cfh1dz4Wo67SSPK-YPB2-75" value="" style="rounded=0;whiteSpace=wrap;html=1;fillColor=#FFD966;container=0;strokeColor=#666666;" vertex="1" parent="cfh1dz4Wo67SSPK-YPB2-71">
          <mxGeometry y="100.73571428571432" width="26.666666666666664" height="8.095238095238095" as="geometry" />
        </mxCell>
        <mxCell id="cfh1dz4Wo67SSPK-YPB2-76" value="" style="rounded=0;whiteSpace=wrap;html=1;fillColor=#FFD966;container=0;strokeColor=#666666;" vertex="1" parent="cfh1dz4Wo67SSPK-YPB2-71">
          <mxGeometry y="122.73571428571432" width="26.666666666666664" height="8.095238095238095" as="geometry" />
        </mxCell>
        <mxCell id="cfh1dz4Wo67SSPK-YPB2-77" value="" style="rounded=0;whiteSpace=wrap;html=1;fillColor=#FFD966;container=0;strokeColor=#666666;" vertex="1" parent="cfh1dz4Wo67SSPK-YPB2-71">
          <mxGeometry y="144.73571428571432" width="26.666666666666664" height="8.095238095238095" as="geometry" />
        </mxCell>
        <mxCell id="cfh1dz4Wo67SSPK-YPB2-78" value="" style="rounded=0;whiteSpace=wrap;html=1;fillColor=#FFD966;container=0;strokeColor=#666666;" vertex="1" parent="cfh1dz4Wo67SSPK-YPB2-71">
          <mxGeometry y="165.73571428571432" width="26.666666666666664" height="8.095238095238095" as="geometry" />
        </mxCell>
        <mxCell id="cfh1dz4Wo67SSPK-YPB2-79" value="" style="rounded=0;whiteSpace=wrap;html=1;fillColor=#FFD966;container=0;strokeColor=#666666;" vertex="1" parent="cfh1dz4Wo67SSPK-YPB2-71">
          <mxGeometry y="185.73571428571432" width="26.666666666666664" height="8.095238095238095" as="geometry" />
        </mxCell>
        <mxCell id="cfh1dz4Wo67SSPK-YPB2-80" value="" style="rounded=0;whiteSpace=wrap;html=1;fillColor=#FFD966;container=0;strokeColor=#666666;" vertex="1" parent="cfh1dz4Wo67SSPK-YPB2-71">
          <mxGeometry y="205.73571428571432" width="26.666666666666664" height="8.095238095238095" as="geometry" />
        </mxCell>
        <mxCell id="cfh1dz4Wo67SSPK-YPB2-81" value="" style="rounded=0;whiteSpace=wrap;html=1;fillColor=#FFD966;container=0;strokeColor=#666666;" vertex="1" parent="cfh1dz4Wo67SSPK-YPB2-71">
          <mxGeometry y="225.73571428571432" width="26.666666666666664" height="8.095238095238095" as="geometry" />
        </mxCell>
        <mxCell id="cfh1dz4Wo67SSPK-YPB2-82" value="" style="rounded=0;whiteSpace=wrap;html=1;fillColor=#FFD966;strokeColor=#666666;container=0;" vertex="1" parent="cfh1dz4Wo67SSPK-YPB2-71">
          <mxGeometry x="0.16" y="248.23571428571432" width="26.666666666666664" height="8.095238095238095" as="geometry" />
        </mxCell>
        <mxCell id="cfh1dz4Wo67SSPK-YPB2-83" value="&lt;font style=&quot;font-size: 28px;&quot;&gt;&lt;b&gt;MCU&lt;/b&gt;&lt;/font&gt;" style="text;html=1;align=center;verticalAlign=middle;whiteSpace=wrap;rounded=0;" vertex="1" parent="cfh1dz4Wo67SSPK-YPB2-71">
          <mxGeometry x="25.67" y="94.04" width="240.67" height="104" as="geometry" />
        </mxCell>
        <mxCell id="cfh1dz4Wo67SSPK-YPB2-84" value="" style="rounded=0;whiteSpace=wrap;html=1;container=0;fillColor=#FFD966;strokeColor=#666666;" vertex="1" parent="cfh1dz4Wo67SSPK-YPB2-71">
          <mxGeometry x="267.17" y="35.74" width="26.67" height="7.96" as="geometry" />
        </mxCell>
        <mxCell id="cfh1dz4Wo67SSPK-YPB2-85" value="" style="rounded=0;whiteSpace=wrap;html=1;container=0;fillColor=#FFD966;strokeColor=#666666;" vertex="1" parent="cfh1dz4Wo67SSPK-YPB2-71">
          <mxGeometry x="267.16999999999996" y="57.035714285714334" width="26.666666666666664" height="8.095238095238095" as="geometry" />
        </mxCell>
        <mxCell id="cfh1dz4Wo67SSPK-YPB2-86" value="" style="rounded=0;whiteSpace=wrap;html=1;container=0;fillColor=#FFD966;strokeColor=#666666;" vertex="1" parent="cfh1dz4Wo67SSPK-YPB2-71">
          <mxGeometry x="267.16999999999996" y="77.03571428571433" width="26.666666666666664" height="8.095238095238095" as="geometry" />
        </mxCell>
        <mxCell id="cfh1dz4Wo67SSPK-YPB2-87" value="" style="rounded=0;whiteSpace=wrap;html=1;container=0;fillColor=#FFD966;strokeColor=#666666;" vertex="1" parent="cfh1dz4Wo67SSPK-YPB2-71">
          <mxGeometry x="267.16999999999996" y="145.03571428571433" width="26.666666666666664" height="8.095238095238095" as="geometry" />
        </mxCell>
        <mxCell id="cfh1dz4Wo67SSPK-YPB2-88" value="" style="rounded=0;whiteSpace=wrap;html=1;container=0;fillColor=#FFD966;strokeColor=#666666;" vertex="1" parent="cfh1dz4Wo67SSPK-YPB2-71">
          <mxGeometry x="267.16999999999996" y="166.03571428571433" width="26.666666666666664" height="8.095238095238095" as="geometry" />
        </mxCell>
        <mxCell id="cfh1dz4Wo67SSPK-YPB2-89" value="" style="rounded=0;whiteSpace=wrap;html=1;container=0;fillColor=#FFD966;strokeColor=#666666;" vertex="1" parent="cfh1dz4Wo67SSPK-YPB2-71">
          <mxGeometry x="267.16999999999996" y="186.03571428571433" width="26.666666666666664" height="8.095238095238095" as="geometry" />
        </mxCell>
        <mxCell id="cfh1dz4Wo67SSPK-YPB2-90" value="" style="rounded=0;whiteSpace=wrap;html=1;container=0;fillColor=#FFD966;strokeColor=#666666;" vertex="1" parent="cfh1dz4Wo67SSPK-YPB2-71">
          <mxGeometry x="267.16999999999996" y="226.03571428571433" width="26.666666666666664" height="8.095238095238095" as="geometry" />
        </mxCell>
        <mxCell id="cfh1dz4Wo67SSPK-YPB2-91" value="" style="rounded=0;whiteSpace=wrap;html=1;container=0;fillColor=#FFD966;strokeColor=#666666;strokeWidth=1;" vertex="1" parent="cfh1dz4Wo67SSPK-YPB2-71">
          <mxGeometry x="267.16999999999996" y="248.23571428571432" width="26.666666666666664" height="8.095238095238095" as="geometry" />
        </mxCell>
        <mxCell id="cfh1dz4Wo67SSPK-YPB2-92" value="" style="rounded=0;whiteSpace=wrap;html=1;container=0;fillColor=#FFD966;strokeColor=#666666;" vertex="1" parent="cfh1dz4Wo67SSPK-YPB2-71">
          <mxGeometry x="267.16999999999996" y="123.03571428571433" width="26.666666666666664" height="8.095238095238095" as="geometry" />
        </mxCell>
        <mxCell id="cfh1dz4Wo67SSPK-YPB2-93" value="" style="rounded=0;whiteSpace=wrap;html=1;container=0;fillColor=#FFD966;strokeColor=#666666;" vertex="1" parent="cfh1dz4Wo67SSPK-YPB2-71">
          <mxGeometry x="267.16999999999996" y="206.03571428571433" width="26.666666666666664" height="8.095238095238095" as="geometry" />
        </mxCell>
        <mxCell id="cfh1dz4Wo67SSPK-YPB2-94" value="" style="rounded=0;whiteSpace=wrap;html=1;container=0;fillColor=#FFD966;strokeColor=#666666;" vertex="1" parent="cfh1dz4Wo67SSPK-YPB2-71">
          <mxGeometry x="267.16999999999996" y="101.03571428571433" width="26.666666666666664" height="8.095238095238095" as="geometry" />
        </mxCell>
        <mxCell id="cfh1dz4Wo67SSPK-YPB2-95" value="" style="rounded=0;whiteSpace=wrap;html=1;rotation=90;container=0;fillColor=#FFD966;strokeColor=#666666;" vertex="1" parent="cfh1dz4Wo67SSPK-YPB2-71">
          <mxGeometry x="239.51000000000005" y="276.9957142857142" width="26.666666666666664" height="8.095238095238095" as="geometry" />
        </mxCell>
        <mxCell id="cfh1dz4Wo67SSPK-YPB2-96" value="" style="rounded=0;whiteSpace=wrap;html=1;rotation=90;container=0;fillColor=#FFD966;strokeColor=#666666;" vertex="1" parent="cfh1dz4Wo67SSPK-YPB2-71">
          <mxGeometry x="218.67000000000004" y="276.9957142857142" width="26.666666666666664" height="8.095238095238095" as="geometry" />
        </mxCell>
        <mxCell id="cfh1dz4Wo67SSPK-YPB2-97" value="" style="rounded=0;whiteSpace=wrap;html=1;rotation=90;container=0;strokeColor=#666666;fillColor=#FFD966;" vertex="1" parent="cfh1dz4Wo67SSPK-YPB2-71">
          <mxGeometry x="197.67000000000004" y="276.9957142857142" width="26.666666666666664" height="8.095238095238095" as="geometry" />
        </mxCell>
        <mxCell id="cfh1dz4Wo67SSPK-YPB2-98" value="" style="rounded=0;whiteSpace=wrap;html=1;rotation=90;container=0;fillColor=#FFD966;strokeColor=#666666;" vertex="1" parent="cfh1dz4Wo67SSPK-YPB2-71">
          <mxGeometry x="129.67000000000002" y="276.9957142857142" width="26.666666666666664" height="8.095238095238095" as="geometry" />
        </mxCell>
        <mxCell id="cfh1dz4Wo67SSPK-YPB2-99" value="" style="rounded=0;whiteSpace=wrap;html=1;rotation=90;container=0;fillColor=#FFD966;strokeColor=#666666;" vertex="1" parent="cfh1dz4Wo67SSPK-YPB2-71">
          <mxGeometry x="109.67000000000003" y="276.9957142857142" width="26.666666666666664" height="8.095238095238095" as="geometry" />
        </mxCell>
        <mxCell id="cfh1dz4Wo67SSPK-YPB2-100" value="" style="rounded=0;whiteSpace=wrap;html=1;rotation=90;container=0;fillColor=#FFD966;strokeColor=#666666;" vertex="1" parent="cfh1dz4Wo67SSPK-YPB2-71">
          <mxGeometry x="88.67000000000003" y="276.9957142857142" width="26.666666666666664" height="8.095238095238095" as="geometry" />
        </mxCell>
        <mxCell id="cfh1dz4Wo67SSPK-YPB2-101" value="" style="rounded=0;whiteSpace=wrap;html=1;rotation=90;container=0;fillColor=#FFD966;strokeColor=#666666;" vertex="1" parent="cfh1dz4Wo67SSPK-YPB2-71">
          <mxGeometry x="48.67000000000003" y="276.9957142857142" width="26.666666666666664" height="8.095238095238095" as="geometry" />
        </mxCell>
        <mxCell id="cfh1dz4Wo67SSPK-YPB2-102" value="" style="rounded=0;whiteSpace=wrap;html=1;rotation=90;container=0;fillColor=#FFD966;strokeColor=#666666;" vertex="1" parent="cfh1dz4Wo67SSPK-YPB2-71">
          <mxGeometry x="27.67000000000003" y="276.9957142857142" width="26.666666666666664" height="8.095238095238095" as="geometry" />
        </mxCell>
        <mxCell id="cfh1dz4Wo67SSPK-YPB2-103" value="" style="rounded=0;whiteSpace=wrap;html=1;rotation=90;container=0;fillColor=#FFD966;strokeColor=#666666;" vertex="1" parent="cfh1dz4Wo67SSPK-YPB2-71">
          <mxGeometry x="151.67000000000002" y="276.9957142857142" width="26.666666666666664" height="8.095238095238095" as="geometry" />
        </mxCell>
        <mxCell id="cfh1dz4Wo67SSPK-YPB2-104" value="" style="rounded=0;whiteSpace=wrap;html=1;rotation=90;container=0;fillColor=#FFD966;strokeColor=#666666;" vertex="1" parent="cfh1dz4Wo67SSPK-YPB2-71">
          <mxGeometry x="68.67000000000003" y="276.9957142857142" width="26.666666666666664" height="8.095238095238095" as="geometry" />
        </mxCell>
        <mxCell id="cfh1dz4Wo67SSPK-YPB2-105" value="" style="rounded=0;whiteSpace=wrap;html=1;rotation=90;container=0;fillColor=#FFD966;strokeColor=#666666;" vertex="1" parent="cfh1dz4Wo67SSPK-YPB2-71">
          <mxGeometry x="173.67000000000004" y="276.9957142857142" width="26.666666666666664" height="8.095238095238095" as="geometry" />
        </mxCell>
        <mxCell id="cfh1dz4Wo67SSPK-YPB2-106" value="" style="group;rotation=90;fillColor=default;container=0;" vertex="1" connectable="0" parent="cfh1dz4Wo67SSPK-YPB2-71">
          <mxGeometry x="133.67000000000002" y="-96.96428571428568" width="26.666666666666686" height="220.59523809523807" as="geometry" />
        </mxCell>
        <mxCell id="cfh1dz4Wo67SSPK-YPB2-107" value="" style="rounded=0;whiteSpace=wrap;html=1;rotation=90;container=0;fillColor=#FFD966;strokeColor=#666666;" vertex="1" parent="cfh1dz4Wo67SSPK-YPB2-71">
          <mxGeometry x="239.67000000000002" y="9.035714285714324" width="26.666666666666664" height="8.095238095238095" as="geometry" />
        </mxCell>
        <mxCell id="cfh1dz4Wo67SSPK-YPB2-108" value="" style="rounded=0;whiteSpace=wrap;html=1;rotation=90;container=0;fillColor=#FFD966;strokeColor=#666666;" vertex="1" parent="cfh1dz4Wo67SSPK-YPB2-71">
          <mxGeometry x="218.67000000000002" y="9.035714285714324" width="26.666666666666664" height="8.095238095238095" as="geometry" />
        </mxCell>
        <mxCell id="cfh1dz4Wo67SSPK-YPB2-109" value="" style="rounded=0;whiteSpace=wrap;html=1;rotation=90;container=0;fillColor=#FFD966;strokeColor=#666666;" vertex="1" parent="cfh1dz4Wo67SSPK-YPB2-71">
          <mxGeometry x="197.67000000000002" y="9.035714285714324" width="26.666666666666664" height="8.095238095238095" as="geometry" />
        </mxCell>
        <mxCell id="cfh1dz4Wo67SSPK-YPB2-110" value="" style="rounded=0;whiteSpace=wrap;html=1;rotation=90;container=0;fillColor=#FFD966;strokeColor=#666666;" vertex="1" parent="cfh1dz4Wo67SSPK-YPB2-71">
          <mxGeometry x="130.67000000000002" y="9.035714285714324" width="26.666666666666664" height="8.095238095238095" as="geometry" />
        </mxCell>
        <mxCell id="cfh1dz4Wo67SSPK-YPB2-111" value="" style="rounded=0;whiteSpace=wrap;html=1;rotation=90;container=0;fillColor=#FFD966;strokeColor=#666666;" vertex="1" parent="cfh1dz4Wo67SSPK-YPB2-71">
          <mxGeometry x="109.67000000000002" y="9.035714285714324" width="26.666666666666664" height="8.095238095238095" as="geometry" />
        </mxCell>
        <mxCell id="cfh1dz4Wo67SSPK-YPB2-112" value="" style="rounded=0;whiteSpace=wrap;html=1;rotation=90;container=0;fillColor=#FFD966;strokeColor=#666666;" vertex="1" parent="cfh1dz4Wo67SSPK-YPB2-71">
          <mxGeometry x="89.67000000000002" y="9.035714285714324" width="26.666666666666664" height="8.095238095238095" as="geometry" />
        </mxCell>
        <mxCell id="cfh1dz4Wo67SSPK-YPB2-113" value="" style="rounded=0;whiteSpace=wrap;html=1;rotation=90;container=0;fillColor=#FFD966;strokeColor=#666666;" vertex="1" parent="cfh1dz4Wo67SSPK-YPB2-71">
          <mxGeometry x="49.670000000000016" y="9.035714285714324" width="26.666666666666664" height="8.095238095238095" as="geometry" />
        </mxCell>
        <mxCell id="cfh1dz4Wo67SSPK-YPB2-114" value="" style="rounded=0;whiteSpace=wrap;html=1;rotation=90;container=0;fillColor=#FFD966;strokeColor=#666666;" vertex="1" parent="cfh1dz4Wo67SSPK-YPB2-71">
          <mxGeometry x="27.670000000000016" y="9.035714285714324" width="26.666666666666664" height="8.095238095238095" as="geometry" />
        </mxCell>
        <mxCell id="cfh1dz4Wo67SSPK-YPB2-115" value="" style="rounded=0;whiteSpace=wrap;html=1;rotation=90;container=0;fillColor=#FFD966;strokeColor=#666666;" vertex="1" parent="cfh1dz4Wo67SSPK-YPB2-71">
          <mxGeometry x="151.67000000000002" y="9.035714285714324" width="26.666666666666664" height="8.095238095238095" as="geometry" />
        </mxCell>
        <mxCell id="cfh1dz4Wo67SSPK-YPB2-116" value="" style="rounded=0;whiteSpace=wrap;html=1;rotation=90;container=0;fillColor=#FFD966;strokeColor=#666666;" vertex="1" parent="cfh1dz4Wo67SSPK-YPB2-71">
          <mxGeometry x="69.67000000000002" y="9.035714285714324" width="26.666666666666664" height="8.095238095238095" as="geometry" />
        </mxCell>
        <mxCell id="cfh1dz4Wo67SSPK-YPB2-117" value="" style="rounded=0;whiteSpace=wrap;html=1;rotation=90;container=0;fillColor=#FFD966;strokeColor=#666666;" vertex="1" parent="cfh1dz4Wo67SSPK-YPB2-71">
          <mxGeometry x="174.67000000000002" y="9.035714285714324" width="26.666666666666664" height="8.095238095238095" as="geometry" />
        </mxCell>
        <mxCell id="cfh1dz4Wo67SSPK-YPB2-118" value="" style="rounded=0;whiteSpace=wrap;html=1;fillColor=#f5f5f5;fontColor=#333333;strokeColor=#666666;strokeWidth=3;" vertex="1" parent="cfh1dz4Wo67SSPK-YPB2-71">
          <mxGeometry x="26.67" y="26.04" width="240" height="240.96" as="geometry" />
        </mxCell>
        <mxCell id="cfh1dz4Wo67SSPK-YPB2-119" value="&lt;font style=&quot;font-size: 30px;&quot;&gt;&lt;b style=&quot;&quot;&gt;MCU&lt;/b&gt;&lt;/font&gt;" style="text;html=1;align=center;verticalAlign=middle;whiteSpace=wrap;rounded=0;container=0;" vertex="1" parent="cfh1dz4Wo67SSPK-YPB2-71">
          <mxGeometry x="25.840000000000003" y="89.75999999999999" width="240.34" height="112.56" as="geometry" />
        </mxCell>
        <mxCell id="cfh1dz4Wo67SSPK-YPB2-120" value="" style="rounded=0;whiteSpace=wrap;html=1;" vertex="1" parent="1">
          <mxGeometry x="11" y="530" width="283" height="16" as="geometry" />
        </mxCell>
        <mxCell id="cfh1dz4Wo67SSPK-YPB2-121" value="" style="rounded=0;whiteSpace=wrap;html=1;" vertex="1" parent="1">
          <mxGeometry x="11" y="351" width="283" height="179" as="geometry" />
        </mxCell>
        <mxCell id="cfh1dz4Wo67SSPK-YPB2-122" value="" style="rounded=0;whiteSpace=wrap;html=1;" vertex="1" parent="1">
          <mxGeometry x="14.5" y="362" width="276" height="162" as="geometry" />
        </mxCell>
        <mxCell id="cfh1dz4Wo67SSPK-YPB2-123" value="" style="ellipse;whiteSpace=wrap;html=1;aspect=fixed;" vertex="1" parent="1">
          <mxGeometry x="149.5" y="353" width="6" height="6" as="geometry" />
        </mxCell>
        <mxCell id="cfh1dz4Wo67SSPK-YPB2-124" value="Hard Disk Drives" style="rounded=0;whiteSpace=wrap;html=1;" vertex="1" parent="1">
          <mxGeometry x="19" y="367" width="120" height="21" as="geometry" />
        </mxCell>
        <mxCell id="cfh1dz4Wo67SSPK-YPB2-129" value="" style="group;fillColor=#dae8fc;strokeColor=#000000;" vertex="1" connectable="0" parent="1">
          <mxGeometry x="193" y="431" width="80" height="13" as="geometry" />
        </mxCell>
        <mxCell id="cfh1dz4Wo67SSPK-YPB2-127" value="" style="rounded=0;whiteSpace=wrap;html=1;" vertex="1" parent="cfh1dz4Wo67SSPK-YPB2-129">
          <mxGeometry width="80" height="13" as="geometry" />
        </mxCell>
        <mxCell id="cfh1dz4Wo67SSPK-YPB2-128" value="" style="rounded=0;whiteSpace=wrap;html=1;fillColor=#dae8fc;strokeColor=#000000;" vertex="1" parent="cfh1dz4Wo67SSPK-YPB2-129">
          <mxGeometry width="43" height="13" as="geometry" />
        </mxCell>
        <mxCell id="cfh1dz4Wo67SSPK-YPB2-130" value="" style="group" vertex="1" connectable="0" parent="1">
          <mxGeometry x="39" y="431" width="80" height="14" as="geometry" />
        </mxCell>
        <mxCell id="cfh1dz4Wo67SSPK-YPB2-125" value="" style="rounded=0;whiteSpace=wrap;html=1;" vertex="1" parent="cfh1dz4Wo67SSPK-YPB2-130">
          <mxGeometry width="80" height="14" as="geometry" />
        </mxCell>
        <mxCell id="cfh1dz4Wo67SSPK-YPB2-126" value="" style="rounded=0;whiteSpace=wrap;html=1;fillColor=#dae8fc;strokeColor=#000000;" vertex="1" parent="cfh1dz4Wo67SSPK-YPB2-130">
          <mxGeometry width="59.71291866028708" height="14" as="geometry" />
        </mxCell>
        <mxCell id="cfh1dz4Wo67SSPK-YPB2-131" value="&lt;font style=&quot;font-size: 10px;&quot;&gt;OSDisk (C:)&lt;/font&gt;" style="text;html=1;align=left;verticalAlign=middle;whiteSpace=wrap;rounded=0;" vertex="1" parent="1">
          <mxGeometry x="39" y="414" width="80" height="17" as="geometry" />
        </mxCell>
        <mxCell id="cfh1dz4Wo67SSPK-YPB2-132" value="&lt;font style=&quot;font-size: 10px;&quot;&gt;Drive Name(C:)&lt;/font&gt;" style="text;html=1;align=left;verticalAlign=middle;whiteSpace=wrap;rounded=0;" vertex="1" parent="1">
          <mxGeometry x="193" y="414" width="80" height="17" as="geometry" />
        </mxCell>
      </root>
    </mxGraphModel>
  </diagram>
</mxfile>
